<svg xmlns="http://www.w3.org/2000/svg" viewBox="0 0 24 24" fill="currentColor">
  <path d="M12 1.5A10.5 10.5 0 0 0 8.68 22a.55.55 0 0 0 .73-.53c0-.26-.01-1.13-.02-2.05-2.92.63-3.54-1.24-3.54-1.24-.48-1.21-1.17-1.54-1.17-1.54-.95-.65.07-.64.07-.64 1.06.07 1.62 1.09 1.62 1.09.94 1.61 2.46 1.15 3.06.88.1-.68.37-1.15.67-1.41-2.33-.27-4.78-1.17-4.78-5.18 0-1.15.41-2.08 1.08-2.82-.11-.27-.47-1.34.1-2.79 0 0 .88-.28 2.88 1.08a10 10 0 0 1 5.24 0c2-1.36 2.88-1.08 2.88-1.08.57 1.45.21 2.52.1 2.79.67.74 1.08 1.67 1.08 2.82 0 4.02-2.46 4.9-4.8 5.16.38.33.71.97.71 1.96 0 1.42-.01 2.56-.01 2.91 0 .29.19.62.74.52A10.5 10.5 0 0 0 12 1.5z"/>
</svg>
